<svg width="177px" height="32px" viewBox="0 0 177 32" version="1.1" xmlns="http://www.w3.org/2000/svg" xmlns:xlink="http://www.w3.org/1999/xlink"><defs></defs> <g id="Trioteca" stroke="none" stroke-width="1" fill="none" fill-rule="evenodd"><g id="Dashboard-/-Results-/-No-documentation" transform="translate(-64.000000, -51.000000)" fill="#000000"><g id="logo" transform="translate(65.000000, 49.000000)"><g id="Group-7" transform="translate(0.000000, 2.000000)"><path d="M29.2979333,1.68271836 C28.1629778,0.560906119 26.6757778,0 25.1883333,0 C23.7011333,0 22.2141778,0.560906119 21.0794667,1.68271836 L20,2.74991415 L18.9205333,1.68271836 C17.7858222,0.560906119 16.2986222,0 14.8114222,0 C13.3239778,0 11.8367778,0.560906119 10.7020667,1.68271836 C8.43264444,3.92634283 8.43264444,7.56413681 10.7020667,9.80776129 L20,19 L29.2979333,9.80776129 C31.5673556,7.56413681 31.5673556,3.92634283 29.2979333,1.68271836" id="Fill-1"></path> <path d="M31.7001131,31.2650736 L31.7001131,22.3568353 L28.3435667,22.3568353 L28.3435667,28.3653624 L20.8857778,21 L30.1885384,11.8125312 C32.4591388,9.57007093 36.1406714,9.57007093 38.4112719,11.8125312 C39.5465721,12.9337613 40.1142222,14.4032926 40.1142222,15.8730654 C40.1142222,17.3425966 39.5465721,18.8121279 38.4112719,19.933358 L37.3312448,21 L38.4112719,22.066642 C39.5465721,23.1878721 40.1142222,24.6571619 40.1142222,26.1266931 C40.1142222,27.5964659 39.5465721,29.0659972 38.4112719,30.1874688 C36.5954803,31.9807568 33.8773769,32.3399583 31.7001131,31.2650736 Z" id="Combined-Shape"></path> <path d="M1.58872814,11.8125312 C0.453427911,12.9340028 -0.114222201,14.4035341 -0.114222201,15.8733069 C-0.114222201,17.3428381 0.453427911,18.8121279 1.58872814,19.933358 L2.66875523,21 L1.58872814,22.066642 C0.453427911,23.1878721 -0.114222201,24.6574034 -0.114222201,26.1269346 C-0.114222201,27.5967074 0.453427911,29.0662387 1.58872814,30.1874688 C3.85932858,32.4299291 7.54086117,32.4299291 9.81146162,30.1874688 L19.1142222,21 L9.81146162,11.8125312 C7.54086117,9.57007093 3.85932858,9.57007093 1.58872814,11.8125312" id="Fill-1"></path></g> <path d="M55.474,27 L55.474,11.488 L51.022,11.488 L51.022,7.4 L64.126,7.4 L64.126,11.488 L59.674,11.488 L59.674,27 L55.474,27 Z M81.318,14.624 C81.318,17.256 80.03,18.684 78.602,19.804 C80.842,21.484 81.318,23.444 81.318,25.488 L81.318,27 L77.118,27 L77.118,25.488 C77.118,23.416 75.718,21.708 73.59,21.708 L71.014,21.708 L71.014,27 L66.814,27 L66.814,7.4 L74.066,7.4 C78.07,7.4 81.318,10.648 81.318,14.624 Z M77.034,14.624 C77.034,12.776 75.522,11.264 73.674,11.264 L71.014,11.264 L71.014,17.956 L73.674,17.956 C75.522,17.956 77.034,16.444 77.034,14.624 Z M84.37,27 L84.37,7.4 L88.57,7.4 L88.57,27 L84.37,27 Z M91.118,17.228 C91.118,11.6 95.57,7.064 101.142,7.064 C106.714,7.064 111.194,11.6 111.194,17.228 C111.194,22.828 106.742,27.364 101.17,27.364 C95.598,27.364 91.118,22.828 91.118,17.228 Z M95.514,17.228 C95.514,20.532 98.062,23.248 101.17,23.248 C104.25,23.248 106.798,20.532 106.798,17.228 C106.798,13.924 104.222,11.18 101.142,11.18 C98.034,11.18 95.514,13.924 95.514,17.228 Z M117.242,27 L117.242,11.488 L112.79,11.488 L112.79,7.4 L125.894,7.4 L125.894,11.488 L121.442,11.488 L121.442,27 L117.242,27 Z M128.582,27 L128.582,7.4 L140.678,7.4 L140.678,11.488 L132.782,11.488 L132.782,14.288 L140.314,14.288 L140.314,18.32 L132.782,18.32 L132.782,22.884 L140.818,22.884 L140.818,27 L128.582,27 Z M156.89,21.68 L156.89,26.552 C155.546,27.112 154.342,27.364 152.914,27.364 C147.342,27.364 142.89,22.828 142.89,17.228 C142.89,11.6 147.342,7.064 152.914,7.064 C154.342,7.064 155.546,7.316 156.89,7.876 L156.89,12.748 C155.938,11.824 154.566,11.18 152.914,11.18 C149.806,11.18 147.286,13.924 147.286,17.228 C147.286,20.532 149.806,23.248 152.914,23.248 C154.566,23.248 155.938,22.604 156.89,21.68 Z M169.798,23.332 L164.198,23.332 L162.63,27 L158.178,27 L166.97,7.036 L175.762,27 L171.31,27 L169.798,23.332 Z M168.37,19.58 L166.97,16.192 L165.626,19.58 L168.37,19.58 Z" id="trioTeca"></path></g></g></g></svg>